<svg xmlns="http://www.w3.org/2000/svg" viewBox="0 0 30 20"><defs><style>.cls-1{fill:#6aa727;}.cls-2{fill:#f3de3a;}.cls-2,.cls-3,.cls-4,.cls-5{fill-rule:evenodd;}.cls-3{fill:#ebebeb;}.cls-4{fill:#1d3191;}.cls-5{fill:#5f9724;}</style></defs><g id="Camada_2" data-name="Camada 2"><g id="Camada_1-2" data-name="Camada 1"><rect class="cls-1" width="30" height="20"/><polygon class="cls-2" points="2.66 9.97 14.98 2.35 27.35 9.97 15 17.58 2.66 9.97"/><path class="cls-3" d="M15,15.14a5.12,5.12,0,0,0,5.18-5,5.18,5.18,0,0,0-10.36,0A5.12,5.12,0,0,0,15,15.14Z"/><path class="cls-4" d="M15,5.06a5.11,5.11,0,0,1,5.17,4.87,14.31,14.31,0,0,0-7.35-2,15,15,0,0,0-2.6.23A5.2,5.2,0,0,1,15,5.06ZM20,11.18A13.27,13.27,0,0,0,12.79,9a13.58,13.58,0,0,0-2.94.33,4.4,4.4,0,0,0-.06.73A5.2,5.2,0,0,0,20,11.18Z"/><path class="cls-5" d="M11.17,8.61a.25.25,0,0,1-.06.21.24.24,0,0,1-.18.1.24.24,0,0,1-.18-.07.25.25,0,0,1-.08-.18.26.26,0,0,1,.06-.21.24.24,0,0,1,.18-.09.2.2,0,0,1,.18.06A.25.25,0,0,1,11.17,8.61Zm-.11,0A.19.19,0,0,0,11,8.5a.12.12,0,0,0-.11,0,.1.1,0,0,0-.09.06.14.14,0,0,0,0,.13.17.17,0,0,0,.05.13.13.13,0,0,0,.11.05A.15.15,0,0,0,11,8.77.17.17,0,0,0,11.06,8.63Zm.64.19h-.12a.61.61,0,0,0-.09-.16.1.1,0,0,0-.08,0h0a1.36,1.36,0,0,0,0,.2l-.11,0c0-.08,0-.18,0-.28l0-.24h.18c.13,0,.19,0,.2.1a.13.13,0,0,1-.09.15h0s.05,0,.08.05Zm-.19-.35c0-.05,0-.07-.11-.07l-.06,0a1.37,1.37,0,0,0,0,.16h0C11.48,8.56,11.52,8.53,11.51,8.47Zm.67,0a.37.37,0,0,1-.06.21.26.26,0,0,1-.2.1h-.16a2.62,2.62,0,0,0,0-.27c0-.1,0-.18,0-.25h.16a.24.24,0,0,1,.21.06A.25.25,0,0,1,12.18,8.51Zm-.11,0A.21.21,0,0,0,12,8.41a.2.2,0,0,0-.14,0h-.05s0,.11,0,.16a1.11,1.11,0,0,0,0,.19h.05A.14.14,0,0,0,12,8.67.28.28,0,0,0,12.07,8.54Zm.54.15v.09h-.33c0-.08,0-.17,0-.27s0-.18,0-.25h.32v.09h-.21s0,.08,0,.13h.17v.08h-.18c0,.06,0,.11,0,.16Zm.68.09h-.11s0-.13,0-.23,0-.18,0-.2h0l0,.08a1.85,1.85,0,0,1-.06.2.79.79,0,0,0-.05.15h-.09a.54.54,0,0,0,0-.15l-.06-.18a.44.44,0,0,1,0-.1h0s0,.1,0,.21,0,.18,0,.22h-.1s0-.09,0-.24,0-.25,0-.28h.16a.57.57,0,0,0,0,.19,1.32,1.32,0,0,1,.05.2h0a.86.86,0,0,1,.06-.2,1.06,1.06,0,0,0,0-.19h.15c0,.05,0,.15,0,.29A1.68,1.68,0,0,1,13.29,8.78Zm1.19,0v.08l-.34,0c0-.08,0-.17,0-.28s0-.17,0-.24l.32,0v.09l-.22,0a.66.66,0,0,1,0,.13h.18v.08l-.17,0a.86.86,0,0,0,0,.15Zm1.17-.15a.18.18,0,0,1-.09.13.35.35,0,0,1-.18,0h0c0,.05,0,.12,0,.2l-.11,0c0-.07,0-.16,0-.27s0-.17,0-.24h.19a.23.23,0,0,1,.12.06A.11.11,0,0,1,15.65,8.63Zm-.1,0c0-.05,0-.09-.1-.1h-.06a1.11,1.11,0,0,1,0,.17h0C15.49,8.72,15.54,8.69,15.55,8.63Zm.51.48c0-.09,0-.16,0-.2a.16.16,0,0,0,0-.08h0a.15.15,0,0,0,.13-.11c0-.09,0-.14-.15-.17h-.12l-.06,0c0,.07,0,.15,0,.25s-.05.18-.07.26l.11,0a1.55,1.55,0,0,1,0-.21h0a.1.1,0,0,1,.07.05,1,1,0,0,1,0,.19ZM16,8.72c0,.06-.06.08-.14.06h0c0-.06,0-.12,0-.16h.06C16,8.64,16,8.67,16,8.72Zm.66.26a.29.29,0,0,1-.12.18.24.24,0,0,1-.2,0,.25.25,0,0,1-.15-.11.28.28,0,0,1,0-.2.27.27,0,0,1,.13-.18.26.26,0,0,1,.19,0,.28.28,0,0,1,.16.12A.27.27,0,0,1,16.65,9Zm-.11,0a.22.22,0,0,0,0-.14.14.14,0,0,0-.09-.08.12.12,0,0,0-.11,0,.35.35,0,0,0-.07.12.22.22,0,0,0,0,.14.14.14,0,0,0,.09.08.12.12,0,0,0,.11,0A.24.24,0,0,0,16.54,9Zm.54.43-.16,0a.28.28,0,0,1-.18-.13.27.27,0,0,1,0-.2.29.29,0,0,1,.13-.16.26.26,0,0,1,.23,0l.1.05,0,.08-.1-.05a.14.14,0,0,0-.13,0,.2.2,0,0,0-.08.1.22.22,0,0,0,0,.14.14.14,0,0,0,.1.1H17s0-.06,0-.09a.24.24,0,0,0,0-.09l.11,0s0,.08,0,.12Zm.48.19a.75.75,0,0,0,0-.2.13.13,0,0,0,0-.09h0a.14.14,0,0,0,.14-.1q0-.12-.12-.18l-.07,0L17.4,9l-.06,0c0,.07-.05.14-.08.24s-.07.18-.1.25l.11,0,.06-.2.05,0a.1.1,0,0,1,.06,0,.82.82,0,0,1,0,.19Zm0-.39c0,.05-.07.06-.15,0l0,0,.05-.15.06,0C17.53,9.1,17.56,9.14,17.54,9.19Zm.43.46,0,.08-.31-.12c0-.07.07-.16.1-.25a1.86,1.86,0,0,0,.09-.24l.3.12,0,.08-.2-.08s0,.07,0,.12l.17.06,0,.08-.17-.07c0,.05,0,.1-.05.14Zm.42.12a.14.14,0,0,0,0-.11.58.58,0,0,0-.08-.1l-.06-.07a0,0,0,0,1,0,0s0,0,.1,0l.1.06.05-.07a.34.34,0,0,0-.12-.06.21.21,0,0,0-.15,0,.15.15,0,0,0-.08.19l.06.09.07.07a.13.13,0,0,1,0,.06s0,0,0,0l-.09,0-.11-.07L18,9.77l.13.07C18.26,9.89,18.35,9.87,18.39,9.77Zm.4.18c0,.09-.13.11-.26.05l-.13-.07.06-.07.1.07.09,0s0,0,0,0,0,0,0-.05,0,0-.06-.09a.24.24,0,0,1-.06-.09.09.09,0,0,1,0-.1.12.12,0,0,1,.09-.08.28.28,0,0,1,.15,0l.11.06-.05.08a.17.17,0,0,0-.1-.06c-.05,0-.09,0-.1,0a0,0,0,0,0,0,0l.06.07a.26.26,0,0,1,.07.1A.13.13,0,0,1,18.79,10Zm.56.15a.23.23,0,0,0-.09-.34.24.24,0,0,0-.2,0,.29.29,0,0,0-.16.15.24.24,0,0,0,0,.2.29.29,0,0,0,.12.15.28.28,0,0,0,.2,0A.24.24,0,0,0,19.35,10.1Zm-.1,0a.19.19,0,0,1-.1.1.11.11,0,0,1-.11,0,.11.11,0,0,1-.06-.09.18.18,0,0,1,0-.14.19.19,0,0,1,.1-.1.11.11,0,0,1,.11,0,.16.16,0,0,1,.07.09A.18.18,0,0,1,19.25,10.06Z"/><path class="cls-3" d="M18.15,12.58l.06-.25L18,12.19l.27,0,.07-.22.1.22h.24l-.19.15.07.23-.21-.13ZM10,10.24,10.1,10l-.21-.13.27,0,.08-.21.09.22h.24l-.19.15.07.23-.21-.13Zm.35,1.62,0-.14-.12-.08h.15l.05-.13.05.13h.14l-.11.09,0,.13-.12-.07Zm.45-.28.06-.25-.21-.14.27,0L11,11l.09.22h.24l-.19.15.07.23L11,11.43Zm.69-.52,0-.11-.09-.06h.12l0-.09,0,.09h.11l-.08.06,0,.11-.1-.06Zm.59.85,0-.14L12,11.69h.15l.05-.13,0,.13h.14l-.11.08,0,.13-.12-.07Zm-.17.55,0-.14-.12-.08H12l0-.12.06.12h.13l-.1.08,0,.14-.12-.08Zm.72.57.06-.24-.21-.14.26,0,.08-.21.1.22h.24l-.19.15.07.23-.21-.13ZM13.22,11l.06-.25-.2-.13.26,0,.08-.21.09.22h.24l-.19.15.07.23-.21-.13Zm1.19,1,.06-.25-.2-.14.26,0,.08-.22.09.22.24,0-.19.15.07.22-.21-.12Zm.54-.63.05-.25L14.8,11l.26,0,.08-.21.09.22h.24l-.19.15.08.23-.21-.13Zm.12.93,0-.11L15,12.12h.12l0-.1,0,.1h.11l-.08.07,0,.1-.1,0Zm.07.47,0-.14-.12-.08h.15l0-.13.06.13h.13l-.1.08,0,.13-.12-.07Zm-.07,1.13,0-.14L15,13.67h.15l0-.13.06.13h.13l-.1.08,0,.13-.12-.07ZM15.66,12l.06-.25-.21-.14.26,0,.08-.22.1.22h.24l-.19.16.07.22-.21-.13Zm.89-1.8,0-.15L16.47,10l.15,0,0-.12.05.12h.14l-.11.09,0,.13-.12-.08Zm-.16,3,0-.11-.09-.06h.11l0-.09,0,.09h.1l-.08.07,0,.1-.09-.06Zm.27.46,0-.11-.09-.07h.12l0-.09.05.1h.1l-.08.07,0,.1-.09-.06ZM17,13.4l0-.11-.09-.06H17l0-.1,0,.1h.11l-.08.07,0,.1-.1-.06Zm.07-5,.06-.25-.2-.13.26,0,.08-.21.09.22h.24l-.19.15.07.23-.21-.13Zm.38,5.17,0-.1-.08-.06h.1l0-.09,0,.09h.1l-.08.06,0,.09-.08,0Zm.28.24,0-.09-.07,0h.09l0-.08,0,.08h.08l-.07,0,0,.08-.07,0Zm0-.55,0-.08-.07-.05h.09l0-.07,0,.07h.08l-.06.05,0,.08-.07-.05Zm.39,0v-.08l-.06,0h.08l0-.07,0,.08h.08l-.06,0,0,.08-.07,0Zm.27-.31,0-.11-.09-.06h.11l0-.1,0,.1h.11l-.09.06,0,.1-.09,0Zm.2.3,0-.11-.09-.06h.11l0-.09,0,.09h.1l-.08.07,0,.1-.09-.06Zm.42-1,0-.15L19,12.05l.15,0,0-.12.05.13h.14l-.11.09,0,.13-.12-.08Z"/></g></g></svg>