<svg xmlns="http://www.w3.org/2000/svg" viewBox="0 0 30 20"><defs><style>.cls-1{fill:#ededed;}.cls-2{fill:#cc0b1b;}.cls-3{fill:#2c4db5;}</style></defs><g id="Camada_2" data-name="Camada 2"><g id="Camada_1-2" data-name="Camada 1"><rect class="cls-1" width="30" height="20"/><path class="cls-2" d="M0,18.46H30V20H0ZM0,0H30V1.54H0ZM0,3.08H30V4.62H0ZM0,6.15H30V7.69H0ZM0,9.23H30v1.54H0Zm0,3.08H30v1.54H0Zm0,3.07H30v1.54H0Z"/><rect class="cls-3" width="15.2" height="10.77"/><path class="cls-1" d="M14,3l-.14-.42L13.76,3h-.45l.37.27-.14.42.36-.26.36.26-.14-.42L14.49,3ZM1.52,1.14,1.89.87H1.44L1.3.45,1.16.87H.71l.37.27-.14.42L1.3,1.3l.36.26ZM4,1.14,4.41.87H4L3.82.45,3.68.87H3.23l.37.27-.14.42.36-.26.36.26Zm2.52,0L6.93.87H6.48L6.34.45,6.2.87H5.75l.37.27L6,1.56l.36-.26.36.26Zm2.52,0L9.45.87H9L8.86.45,8.72.87H8.27l.37.27-.14.42.36-.26.36.26ZM2.85,8.65l.36-.27H2.77L2.63,8l-.14.42H2l.36.27-.13.42.36-.26L3,9.07ZM2.8,6.55l.36-.27H2.72l-.14-.42-.14.42H2l.36.27L2.22,7l.36-.26L2.94,7Zm0-2.09.37-.26H2.73l-.14-.43-.14.43H2l.37.26-.14.43.36-.27L3,4.89ZM11.6,1.14,12,.87h-.45L11.38.45l-.14.42h-.45l.37.27L11,1.56l.36-.26.36.26Zm2.52,0,.37-.27H14L13.9.45l-.14.42h-.45l.37.27-.14.42.36-.26.36.26ZM5.33,4.46,5.7,4.2H5.25l-.14-.43L5,4.2H4.53l.36.26-.14.43.36-.27.36.27Zm0,2.09.36-.27H5.24L5.1,5.86,5,6.28H4.51l.36.27L4.74,7l.36-.26L5.46,7Zm0,2.1.36-.27H5.29L5.15,8,5,8.38H4.56l.36.27-.13.42.36-.26.36.26Zm2.52,0,.36-.27H7.81L7.67,8l-.14.42H7.08l.36.27-.13.42.36-.26L8,9.07Zm0-2.1.36-.27H7.76l-.14-.42-.14.42H7l.36.27L7.26,7l.36-.26L8,7Zm0-2.09.37-.26H7.77l-.14-.43-.14.43H7.05l.36.26-.14.43.36-.27L8,4.89ZM2.78,2.22,3.15,2H2.7l-.14-.42L2.42,2H2l.37.27-.14.42.36-.26.36.26Zm2.52,0L5.67,2H5.22l-.14-.42L4.94,2H4.49l.37.27-.14.42.36-.26.36.26Zm5.07,2.24.37-.26h-.45l-.14-.43L10,4.2H9.56l.37.26-.14.43.36-.27.36.27Zm0,2.09.36-.27h-.44l-.14-.42L10,6.28H9.55l.36.27L9.78,7l.36-.26L10.5,7Zm.05,2.1.36-.27h-.44L10.19,8l-.14.42H9.6l.36.27-.13.42.36-.26.36.26Zm2.52,0,.36-.27h-.44L12.71,8l-.14.42h-.45l.36.27-.13.42.36-.26.36.26Zm0-2.1.36-.27H12.8l-.14-.42-.14.42h-.45l.36.27L12.3,7l.36-.26L13,7Zm0-2.09.37-.26h-.45l-.14-.43-.14.43h-.45l.37.26-.14.43.36-.27.36.27ZM7.82,2.22,8.19,2H7.74L7.6,1.53,7.46,2H7l.37.27-.14.42.36-.26L8,2.64Zm2.52,0L10.71,2h-.45l-.14-.42L10,2H9.53l.37.27-.14.42.36-.26.36.26Zm2.52,0L13.23,2h-.45l-.14-.42L12.5,2h-.45l.37.27-.14.42.36-.26.36.26ZM1.59,9.73,2,9.46H1.51L1.37,9l-.14.42H.78l.36.27L1,10.15l.36-.26.36.26Zm-.05-2.1.36-.27H1.46l-.14-.42-.14.42H.73l.36.27L1,8.05l.36-.26.36.26Zm0-2.09.37-.26H1.47l-.14-.43-.14.43H.74l.37.26L1,6l.36-.27L1.69,6Zm2.52,0,.37-.26H4l-.14-.43-.14.43H3.26l.37.26L3.49,6l.36-.27L4.21,6Zm0,2.09.36-.27H4l-.14-.42-.14.42H3.25l.36.27-.13.42.36-.26.36.26Zm.05,2.1.36-.27H4L3.89,9l-.14.42H3.3l.36.27-.13.42.36-.26.36.26Zm2.52,0L7,9.46H6.55L6.41,9l-.14.42H5.82l.36.27-.13.42.36-.26.36.26Zm0-2.1.36-.27H6.5l-.14-.42-.14.42H5.77l.36.27L6,8.05l.36-.26.36.26Zm0-2.09L7,5.28H6.51l-.14-.43-.14.43H5.78l.37.26L6,6l.36-.27L6.73,6ZM1.52,3.3,1.89,3H1.44L1.3,2.61,1.16,3H.71l.37.27-.14.42.36-.26.36.26ZM4,3.3,4.41,3H4l-.14-.42L3.68,3H3.23l.37.27-.14.42.36-.26.36.26ZM9.11,5.54l.37-.26H9l-.14-.43-.14.43H8.3l.37.26L8.53,6l.36-.27L9.25,6Zm0,2.09.36-.27H9l-.14-.42-.14.42H8.29l.36.27-.13.42.36-.26.36.26Zm.05,2.1.36-.27H9.07L8.93,9l-.14.42H8.34l.36.27-.13.42.36-.26.36.26Zm2.52,0L12,9.46h-.44L11.45,9l-.14.42h-.45l.36.27-.13.42.36-.26.36.26Zm2.52,0,.36-.27h-.44L14,9l-.14.42h-.45l.36.27-.13.42L14,9.89l.36.26Zm-2.57-2.1L12,7.36h-.44l-.14-.42-.14.42h-.45l.36.27L11,8.05l.36-.26.36.26Zm2.52,0,.36-.27h-.44l-.14-.42-.14.42h-.45l.36.27-.13.42.36-.26.36.26ZM11.63,5.54,12,5.28h-.45l-.14-.43-.14.43h-.45l.37.26L11.05,6l.36-.27.36.27Zm2.52,0,.37-.26h-.45l-.14-.43-.14.43h-.45l.37.26L13.57,6l.36-.27.36.27ZM6.56,3.3,6.93,3H6.48l-.14-.42L6.2,3H5.75l.37.27L6,3.72l.36-.26.36.26Zm2.52,0L9.45,3H9l-.14-.42L8.72,3H8.27l.37.27-.14.42.36-.26.36.26Zm2.52,0L12,3h-.45l-.14-.42L11.24,3h-.45l.37.27L11,3.72l.36-.26.36.26Z"/></g></g></svg>